<?xml version="1.0" encoding="utf-8"?>
<svg version="1.1" baseProfile="tiny" id="Layer_1" xmlns="http://www.w3.org/2000/svg" xmlns:xlink="http://www.w3.org/1999/xlink"
	 x="0px" y="0px" width="79.069px" height="77.034px" viewBox="0 0 79.069 77.034" xml:space="preserve">
<g>
	<path fill="#66BB6A" d="M79.069,48.085c0,4.768-3.38,10.619-7.51,13.006L47.043,75.247c-4.13,2.383-10.889,2.383-15.018,0
		L7.508,61.091C3.379,58.704,0,52.853,0,48.085V28.952c0-4.771,3.379-10.622,7.508-13.006L32.025,1.79
		c4.129-2.387,10.888-2.387,15.018,0L71.56,15.946c4.13,2.384,7.51,8.235,7.51,13.006V48.085z"/>
	<g>
		<path fill="#FFFFFF" d="M57.066,29.218c0.006-0.182,0.009-0.367,0.009-0.549c0-8.964-7.444-16.256-16.598-16.256
			c-6.832,0-13.017,4.206-15.473,10.369c-0.421-0.033-0.842-0.051-1.26-0.051c-8.319,0-15.088,6.631-15.088,14.78
			c0,8.155,6.769,14.786,15.089,14.786h5.375c0.841,0,1.523-0.681,1.523-1.523V34.675l13.962,6.07v22.033l-11.404-5.126
			c-0.768-0.35-1.669-0.006-2.014,0.762c-0.347,0.768-0.001,1.67,0.765,2.017l13.553,6.094c0.198,0.09,0.412,0.131,0.624,0.131
			c0.29,0,0.577-0.08,0.828-0.241c0.433-0.284,0.695-0.762,0.695-1.282V39.745c0-0.607-0.361-1.157-0.917-1.398l-17.009-7.387
			c-0.472-0.206-1.013-0.161-1.442,0.12c-0.429,0.284-0.688,0.762-0.688,1.275v16.895h-3.852c-6.641,0-12.042-5.263-12.042-11.739
			c0-6.47,5.401-11.733,12.041-11.733c0.676,0,1.364,0.057,2.046,0.167c0.756,0.12,1.479-0.332,1.702-1.057
			c1.7-5.55,7.039-9.428,12.984-9.428c7.472,0,13.551,5.927,13.551,13.209c0,0.633-0.048,1.278-0.144,1.917
			c-0.068,0.463,0.081,0.938,0.406,1.279c0.329,0.34,0.798,0.508,1.264,0.46c0.345-0.036,0.694-0.069,1.055-0.069
			c4.809,0,8.726,3.812,8.726,8.495c0,4.688-3.917,8.498-8.726,8.498h-2.863v-4.934c0-0.843-0.682-1.523-1.522-1.523
			c-0.842,0-1.523,0.681-1.523,1.523v6.457c0,0.843,0.682,1.523,1.523,1.523h4.386c6.489,0,11.771-5.18,11.771-11.545
			C68.38,34.538,63.347,29.457,57.066,29.218z"/>
		<circle fill="#FFFFFF" cx="40.321" cy="50.772" r="1.802"/>
	</g>
</g>
</svg>
