<svg version="1.0" id="svglogo" class="logo fade-in one" xmlns="http://www.w3.org/2000/svg" xmlns:xlink="http://www.w3.org/1999/xlink" x="0px" y="0px" viewBox="0 0 245 39.4" style="enable-background:new 0 0 245 39.4;" xml:space="preserve">
<filter id="fcv"><feConvolveMatrix order="3 3" preserveAlpha="true" kernelMatrix="0 -1 0 -1 12 -1 0 -1 0"></feConvolveMatrix></filter>
<path fill="#ffffff" d="M108.2,37.2H93.5v2.2h14.7V37.2z M11.4,12.3h8.7V10H0v2.3h8.7v16.2h2.7V12.3z M43.3,28.5H46V10h-2.7v7.9H28.1V10h-2.7v18.4h2.7v-8.3h15.2V28.5z M54,28.5h17.6v-2.2H56.7v-6.1H71v-2.3H56.7v-5.6h14.8V10H54V28.5z M109.8,28.5h2.9l-10.4-18.4h-2.8L89.1,28.5	H92l6.4-11.6c1.3-2.2,1.9-3.3,2.4-4.9h0.1c0.6,1.6,1.2,2.7,2.5,4.9L109.8,28.5z M136.9,28.5h2.1v-9.7h-11V21h8.6v0.2	c0,3.3-3.5,5.8-8.7,5.8c-5.5,0-9.1-3-9.1-7.6s3.6-7.6,9.1-7.6c4.3,0,7.4,1.7,8.3,4.4l2.8-0.5c-1.2-3.7-5.3-6.1-11-6.1	c-7.3,0-12,3.9-12,9.9c0,5.9,4.5,9.8,11.5,9.8c4.3,0,7.5-1.5,9.2-4L136.9,28.5z M145.9,28.5h17.6v-2.2h-14.9v-6.1h14.3v-2.3h-14.3	v-5.6h14.8V10h-17.5L145.9,28.5L145.9,28.5z M188.2,28.5h2.9V10h-2.5v13.4v2.2h-0.1c-0.2-0.5-0.6-1.1-1.2-1.7L173.9,10h-3.3v18.4	h2.5V14.7v-2.1h0.1c0.2,0.5,0.7,1,1.2,1.6L188.2,28.5z M217,16.7l2.9-0.3c-1.2-4.5-5.1-7-11-7c-7.2,0-12.1,4-12.1,9.9	c0,6,4.6,9.9,11.9,9.9c5.8,0,9.5-2.2,11.1-6.4l-2.7-0.5c-1.2,3-4,4.6-8.3,4.6c-5.6,0-9.2-3.1-9.2-7.6c0-4.7,3.5-7.6,9.1-7.6	C213.1,11.6,216,13.4,217,16.7 M245,10h-3.3l-7.3,8.9c-0.2,0.3-0.4,0.5-0.5,0.9h-0.1c-0.1-0.3-0.3-0.6-0.5-0.9l-7.2-8.9h-3.3	l9.7,11.8v6.6h2.7v-6.6L245,10z"></path>
                    </svg>

